<svg width="42" height="42" viewBox="0 0 42 42" fill="none" xmlns="http://www.w3.org/2000/svg">
<rect x="5" y="19.6875" width="32" height="5.90625" rx="2.95312" fill="black"/>
<path d="M7 30.5521C7 29.2634 8.04467 28.2188 9.33333 28.2188H32.6667C33.9553 28.2188 35 29.2634 35 30.5521V30.5521C35 33.1294 32.9107 35.2188 30.3333 35.2188H11.6667C9.08934 35.2188 7 33.1294 7 30.5521V30.5521Z" fill="black"/>
<path fill-rule="evenodd" clip-rule="evenodd" d="M21 7C15.7618 7 10.823 9.35734 7.64229 13.3757L7.45205 13.6161C6.35537 15.0016 7.37861 17 9.1847 17H32.8153C34.6214 17 35.6446 15.0016 34.548 13.6161L34.3577 13.3757C31.177 9.35735 26.2382 7 21 7ZM21 10.3333C21.3682 10.3333 21.6667 10.0349 21.6667 9.66667C21.6667 9.29848 21.3682 9 21 9C20.6318 9 20.3333 9.29848 20.3333 9.66667C20.3333 10.0349 20.6318 10.3333 21 10.3333ZM15.6667 11C15.6667 11.3682 15.3682 11.6667 15 11.6667C14.6318 11.6667 14.3333 11.3682 14.3333 11C14.3333 10.6319 14.6318 10.3334 15 10.3334C15.3682 10.3334 15.6667 10.6319 15.6667 11ZM27 11.6667C27.3682 11.6667 27.6667 11.3682 27.6667 11C27.6667 10.6319 27.3682 10.3334 27 10.3334C26.6318 10.3334 26.3333 10.6319 26.3333 11C26.3333 11.3682 26.6318 11.6667 27 11.6667Z" fill="black"/>
</svg>
