<svg xmlns="http://www.w3.org/2000/svg" viewBox="0 0 144 54" style="enable-background:new 0 0 144 54" xml:space="preserve"><path d="M115.3 3.5H101l-9.8 13.7-.9 1.5h-.5l-.8-1.5-9.9-13.7H65.2l-9.8 13.7-.9 1.5H54l-.9-1.5-9.9-13.7H28.7C13.4 3.5 3.9 13.7 3.9 27.1c0 14.4 11 23.4 25.4 23.4l13.1-.1v-.1l10-14.3 1.3-2.1h.8l1.3 2.1 10 14.4h12.5l10-14.4 1.3-2.1h.8l1.3 2.1 10 14.4 13.1.1c14.3 0 25.4-9 25.4-23.4-.1-13.4-9.6-23.6-24.9-23.6zM47.7 26.9l-.4.4-10.4 14.2h-7.7c-8.8 0-13.9-5.3-13.9-14.5 0-9.3 5.4-14.8 13.9-14.7h8.4l9.8 13.1.4.4v1.1zm35.9 0-.4.4-11.1 15-11.3-15-.4-.4V26l.4-.5 11.1-15.2 11.3 15.1.4.4v1.1zm31.3 14.6h-7.5L96.7 27.3l-.4-.4V26l.4-.5 9.6-13.2h8.5c8.5-.1 13.9 5.4 13.9 14.7.1 9.2-5 14.5-13.8 14.5z"/><circle transform="rotate(-80.781 72 26.999)" cx="72" cy="27" r="3.1"/></svg>